<svg xmlns="http://www.w3.org/2000/svg" width="179" height="35.495" viewBox="0 0 179 35.495">
  <g id="Group_53" data-name="Group 53" transform="translate(-256.194 -240.711)">
    <path id="Path_3" data-name="Path 3" d="M433.988,274.156c0-.132-.1-.22-.309-.22a.744.744,0,0,0-.186.018v.413h.158c.186,0,.337-.061.337-.211m.325.671a1.114,1.114,0,0,0,.107.362h-.361a1.18,1.18,0,0,1-.115-.353c-.027-.159-.114-.23-.3-.23h-.16v.583h-.334v-1.447a2.922,2.922,0,0,1,.556-.045.9.9,0,0,1,.5.106.4.4,0,0,1,.141.319.369.369,0,0,1-.3.334v.018a.426.426,0,0,1,.264.354m.511-.384a1.115,1.115,0,1,0-1.1,1.147,1.107,1.107,0,0,0,1.1-1.147m.37-.017a1.485,1.485,0,1,1-1.482-1.449,1.453,1.453,0,0,1,1.482,1.449m-40.179-8.377c-1.861-.1-3.417-1.068-2.967-3.622a3.823,3.823,0,0,1,.757-1.587c-.019,0-2.594.244-5.141,5.05-1.909,3.6-1.609,7.466.766,7.57,1.891.084,4.372-1.969,5.841-5.29a13.065,13.065,0,0,0,.744-2.12m-40.616-.06a2.909,2.909,0,0,1-2.977-3.737,3.125,3.125,0,0,1,1.01-1.74l-.11,0c-2.442.252-4.178,2.843-5.319,5.214-1.777,3.693-1.512,7.5.708,7.611,1.876.1,4.255-1.882,5.815-5.173.257-.542.7-1.687.873-2.18m-18.58-4.865c-1.2.037-5.663.141-8.272.223a9.008,9.008,0,0,1,5.492,7.113c.143-.4,1.882-5.046,2.78-7.336m94.132,3.768a32.507,32.507,0,0,1,1.475,3.248,5.941,5.941,0,0,1,.327,2.822c-.415,3.149-2.46,4.953-5.984,5.013-1.981.033-3.641-.478-4.44-1.874a1.98,1.98,0,0,1,.123-2.324,4.955,4.955,0,0,1,.817-.817.978.978,0,0,1,.61-.259c.459.025.58.272.73,1.221.184,1.161.881,1.868,1.847,1.85a1.891,1.891,0,0,0,1.868-1.294,4.265,4.265,0,0,0-.684-3.194,8.248,8.248,0,0,1-1.252-4.35c-.834.977-1.693,2.056-2.48,3.1-3.148,4.166-4.632,6.375-7.044,7.337a5.433,5.433,0,0,1-3.324.3c-2.169-.6-2.294-2.6-2.147-3.868a24.753,24.753,0,0,1,2.244-6.67,103.2,103.2,0,0,0-8.673,9.767,1.311,1.311,0,0,1-1.908.235c-.551-.352-.76-.491-1.274-.855-.6-.425-.742-.638-.473-1.681a68.735,68.735,0,0,1,3.33-9.275,11.514,11.514,0,0,1-4.406,1.992,10.827,10.827,0,0,1-1.308,3.561c-2.673,4.724-7.406,7.707-12.047,6.685a4.743,4.743,0,0,1-3.816-4.484,11.167,11.167,0,0,1-4.4,3.716,5.756,5.756,0,0,1-3.535.49c-2.311-.52-2.454-2.5-2.225-4.079a10.982,10.982,0,0,1,.315-1.361,16.808,16.808,0,0,1-6.341,5.233,6.617,6.617,0,0,1-3.53.42c-1.636-.307-2.568-1.547-2.42-3.743.168-2.489,1.97-5.7,5.817-10.007a1.891,1.891,0,0,1-.987-1.208,17.846,17.846,0,0,1-6.07,4.26,11.968,11.968,0,0,1-1.429,4.149c-2.548,4.631-7.581,7.71-12.132,6.461-3.958-1.088-4.924-5.772-2.192-10.447a14.676,14.676,0,0,1,3.721-4.222c-2.764.108-5.659.21-5.659.21s-3.037,6.953-5.821,14.062a1.036,1.036,0,0,1-1.7.555,15.988,15.988,0,0,1-1.455-1.069,1.3,1.3,0,0,1-.584-1.293c.014-4.814-1.9-9.192-5.883-10.51-1.541,3.72-3.244,8.181-4.938,12.547-.356.918-1.122.769-1.938.21-.518-.355-.88-.62-1.358-1-.728-.579-.864-.8-.457-1.978s2.118-5.887,3.911-10.759c-.441.013-1.877.069-1.877.069-.479.016-.75-.07-.9-.446-.2-.516-.32-.844-.457-1.239-.178-.51-.139-.976.729-1.044.332-.026,1.924-.078,3.545-.145,2.919-7.483,6.76-16.066,7.429-17.446.457-.942,1.227-.875,1.941-.466.521.3,1.217.705,2.071,1.26.8.519,1.115.9.526,2.157-.107.226-3.523,7.355-6.595,14.381,1.706-.064,7.979-.273,9.653-.3,2.949-7.28,6.036-14.161,6.5-15.178.294-.648.578-1.182,1.689-.6,1.237.647,1.5.761,2.285,1.231.729.438.973.784.524,1.73-.221.464-2.952,6.216-5.753,12.7,1.512-.038,7.465-.178,9.246-.23a17.324,17.324,0,0,1,3.843.183,4.6,4.6,0,0,1,3.266,3.077,8.988,8.988,0,0,1,.318,1.209,17.889,17.889,0,0,0,7.143-6.63c.31-.546.647-.6,1.291-.345.5.2.4.659.3,1a2.83,2.83,0,0,0,.066,2.174c.306.519.688,1.024,2.844,1.276a.852.852,0,0,1,.832.6c.112.346.168.614-.371,1.222-2.826,3.189-4.574,5.34-5.544,7.858-1.171,3.044.146,2.927.78,2.775,1.749-.418,5.671-4.248,8.459-9.11,1-2.463,2.151-5.138,3.23-7.581-1.512.091-2.43.155-2.62.169a.749.749,0,0,1-.89-.566c-.12-.281-.223-.566-.354-.951s-.132-.789.688-.87c.238-.024,1.919-.161,4.317-.341,1.2-2.674,2.178-4.773,2.524-5.506.474-1.006,1.075-1.234,2.012-.684.866.509,1.013.605,1.732,1.07.676.437.979.719.463,1.851-.463,1.014-.9,1.97-1.32,2.88,4.824-.33,10.273-.653,13.425-.686.952-.01,1.127.12,1.325.556.206.453.351.777.545,1.239.215.516.039.934-.564.949-6.272.157-11.8.39-15.958.6-2.321,5.023-4.059,8.833-6.047,14.207-1.06,2.864.55,2.455.71,2.4,2.132-.691,4.269-4.358,6.81-8.135,2.914-4.33,7.176-6.3,10.833-5.4a4.5,4.5,0,0,1,3.016,2.029,4.268,4.268,0,0,1,.552,1.1,7.018,7.018,0,0,1,.314,1.6,13.173,13.173,0,0,0,6.084-3.73c.446-.445.923-.7,1.808-.086.558.39.916.626,1.43,1.034.707.564,1.041.832.354,2.1a63.749,63.749,0,0,0-3.184,7.138,78.251,78.251,0,0,1,9.361-9.746,1.279,1.279,0,0,1,1.581.074c.556.348.826.517,1.376.926.712.53.967.931.454,1.979a46.812,46.812,0,0,0-3.069,7.155c-.727,2.426.106,2.593.729,2.4.848-.258,1.963-1.448,4.424-4.67a61.727,61.727,0,0,1,6.355-7.294c.62-.6,1.53-1.421,2.137-1.9a3.051,3.051,0,0,1,1.39-.725c.287-.02.459.053.8.375.273.258.323.309.5.486.372.362.568.519.59.8.037.47-.192.6-.719,1.031l-.252.21c-1.092.921-2.328,2.132-1.489,3.95M281.786,255.8a3.294,3.294,0,0,0,2.7-3.432,2.659,2.659,0,0,0-2.682-2.534,2.9,2.9,0,0,0-.469.038,3.293,3.293,0,0,0-2.7,3.432,2.659,2.659,0,0,0,2.682,2.535,2.956,2.956,0,0,0,.47-.039m28.5,7.817c.684-1.274.391-1.622-.383-2.164-.66-.462-.793-.578-1.24-.871a1.552,1.552,0,0,0-2.19.278,108.915,108.915,0,0,0-8.519,8.97c1.552-4.225,2.4-6.061,2.963-7.361.49-1.122.362-1.435-.256-1.858-.429-.293-.891-.6-1.633-1.071a1.227,1.227,0,0,0-1.645.145c-1.606,1.462-6.282,6.14-9.454,9.759,1.554-3.685,2.91-6.839,3.39-7.879.454-.986.534-1.459-.251-2.031-.592-.431-1.122-.768-1.683-1.112-1.018-.623-1.407-.2-1.809.439-.15.239-.378.628-.676,1.108-4.438,7.528-8.052,11.694-9.488,12.178-.617.207-.911.062-1.053-.074-.526-.505-.058-1.942.153-2.521.757-2.081,2.237-5.4,3.758-8.574.58-1.213.4-1.56-.422-2.151-.516-.371-.994-.662-1.613-1.043-.921-.566-1.476-.272-1.989.808-1.231,2.583-4.358,9.112-4.927,12.691-.43,2.7.728,3.889,2.264,4.235a5.394,5.394,0,0,0,3.212-.416c1.63-.778,3.906-2.73,6.968-7.075-.592,1.545-1.218,3.307-1.554,4.426-.379,1.263-.161,1.591.591,2.075.343.221.5.331.989.635a1.351,1.351,0,0,0,1.943-.178,141.642,141.642,0,0,1,9.559-10.682c-.873,2.338-2.177,5.884-2.791,8.136-.273,1-.041,1.339.785,1.894l1.237.787a1.325,1.325,0,0,0,1.824-.294c.695-.83,4.725-5.991,8-9.235a27.652,27.652,0,0,0-2.17,6.693c-.08.557-.437,3.425,2.524,3.875a4.773,4.773,0,0,0,3.888-1.2,1.19,1.19,0,0,0,.43-.911c-.049-.282-.273-.307-.607-.327a2.086,2.086,0,0,1-.871-.2c-1.09-.562-.562-1.926-.31-2.748a38.288,38.288,0,0,1,3.06-7.153m-34.229-16.634c-2.206,4.979-11.333,26.351-12.2,28.286-.368.826-.949,1.19-1.985.622s-1.578-.9-2.389-1.419c-1-.641-.674-1.445-.377-2.087,2.853-6.17,4.659-10.667,6.207-14.026,2.674-5.806,3.98-8.486,5.145-10.963-4.467.468-10.309,1.022-11.565,1.2-1.594.228-1.739-.335-2.105-1.266-.3-.754-.212-.456-.372-.922-.294-.855-.577-1.721,1.035-1.89,3.512-.367,20.15-1.837,32.971-2.082,1.074-.021,1.486.007,1.845.781.334.719.377.705.719,1.526s-.229,1.229-.99,1.261c-5.464.225-10.761.6-15.943.978" transform="translate(0 0)" fill="#fff"/>
  </g>
</svg>
