<svg xmlns="http://www.w3.org/2000/svg" width="25.203" height="25.203" viewBox="0 0 25.203 25.203">
  <g id="Group_5536" data-name="Group 5536" transform="translate(-84.17 -207.946)">
    <path id="Path_7948" data-name="Path 7948" d="M109.373,220.547A12.6,12.6,0,1,0,94.8,233V224.19H91.6v-3.643h3.2v-2.776c0-3.158,1.881-4.9,4.76-4.9a19.384,19.384,0,0,1,2.821.246v3.1h-1.589a1.821,1.821,0,0,0-2.054,1.968v2.364h3.495l-.559,3.643H98.74V233A12.6,12.6,0,0,0,109.373,220.547Z" transform="translate(0 0)" fill="#3b2222"/>
    <path id="Path_7949" data-name="Path 7949" d="M134.058,245.635l.559-3.643h-3.495v-2.364a1.821,1.821,0,0,1,2.054-1.968h1.589v-3.1a19.384,19.384,0,0,0-2.821-.246c-2.879,0-4.76,1.745-4.76,4.9v2.776h-3.2v3.643h3.2v8.806a12.74,12.74,0,0,0,3.938,0v-8.806Z" transform="translate(-32.381 -21.445)" fill="#e5e5e5"/>
  </g>
</svg>
