<svg xmlns="http://www.w3.org/2000/svg" width="25" height="25" viewBox="0 0 25 25">
  <g id="Group_5537" data-name="Group 5537" transform="translate(-532.64 -208.77)">
    <circle id="Ellipse_142" data-name="Ellipse 142" cx="12.5" cy="12.5" r="12.5" transform="translate(532.64 208.77)" fill="#3b2222"/>
    <g id="Group_5540" data-name="Group 5540" transform="translate(537.166 213.297)">
      <g id="Group_5539" data-name="Group 5539" transform="translate(0)">
        <path id="Path_7950" data-name="Path 7950" d="M565.473,234.383c2.129,0,2.381.008,3.222.046a4.41,4.41,0,0,1,1.48.275,2.64,2.64,0,0,1,1.513,1.513,4.417,4.417,0,0,1,.275,1.48c.038.841.046,1.093.046,3.222s-.008,2.381-.046,3.222a4.417,4.417,0,0,1-.275,1.481,2.64,2.64,0,0,1-1.513,1.513,4.414,4.414,0,0,1-1.48.275c-.841.038-1.093.046-3.222.046s-2.381-.008-3.222-.046a4.416,4.416,0,0,1-1.48-.275,2.64,2.64,0,0,1-1.513-1.513,4.408,4.408,0,0,1-.275-1.48c-.038-.841-.046-1.093-.046-3.222s.008-2.381.046-3.222a4.407,4.407,0,0,1,.275-1.48,2.64,2.64,0,0,1,1.513-1.513,4.412,4.412,0,0,1,1.48-.275c.841-.038,1.093-.046,3.222-.046m0-1.437c-2.165,0-2.437.009-3.287.048a5.852,5.852,0,0,0-1.935.37,4.076,4.076,0,0,0-2.332,2.332,5.852,5.852,0,0,0-.37,1.935c-.039.85-.048,1.122-.048,3.287s.009,2.437.048,3.287a5.852,5.852,0,0,0,.37,1.935,4.076,4.076,0,0,0,2.332,2.332,5.852,5.852,0,0,0,1.935.371c.851.039,1.122.048,3.287.048s2.437-.009,3.287-.048a5.851,5.851,0,0,0,1.935-.371,4.076,4.076,0,0,0,2.332-2.332,5.849,5.849,0,0,0,.37-1.935c.039-.851.048-1.122.048-3.287s-.009-2.437-.048-3.287a5.849,5.849,0,0,0-.37-1.935,4.076,4.076,0,0,0-2.332-2.332,5.852,5.852,0,0,0-1.935-.37c-.85-.039-1.122-.048-3.287-.048Z" transform="translate(-557.5 -232.946)" fill="#e5e5e5"/>
        <path id="Path_7951" data-name="Path 7951" d="M582.27,253.622a4.094,4.094,0,1,0,4.094,4.094A4.094,4.094,0,0,0,582.27,253.622Zm0,6.752a2.658,2.658,0,1,1,2.658-2.658A2.658,2.658,0,0,1,582.27,260.374Z" transform="translate(-574.297 -249.743)" fill="#e5e5e5"/>
        <circle id="Ellipse_143" data-name="Ellipse 143" cx="0.957" cy="0.957" r="0.957" transform="translate(11.272 2.76)" fill="#e5e5e5"/>
      </g>
    </g>
  </g>
</svg>
